<?xml version="1.0" encoding="UTF-8" standalone="no"?>
<!-- Created with Inkscape (http://www.inkscape.org/) -->

<svg
   xmlns:dc="http://purl.org/dc/elements/1.1/"
   xmlns:cc="http://creativecommons.org/ns#"
   xmlns:rdf="http://www.w3.org/1999/02/22-rdf-syntax-ns#"
   xmlns:svg="http://www.w3.org/2000/svg"
   xmlns="http://www.w3.org/2000/svg"
   xmlns:sodipodi="http://sodipodi.sourceforge.net/DTD/sodipodi-0.dtd"
   xmlns:inkscape="http://www.inkscape.org/namespaces/inkscape"
   version="1.1"
   id="svg815"
   width="205"
   height="93"
   viewBox="0 0 205 93"
   sodipodi:docname="canvate.svg"
   inkscape:version="0.92.2 (5c3e80d, 2017-08-06)">
  <metadata
     id="metadata821">
    <rdf:RDF>
      <cc:Work
         rdf:about="">
        <dc:format>image/svg+xml</dc:format>
        <dc:type
           rdf:resource="http://purl.org/dc/dcmitype/StillImage" />
        <dc:title></dc:title>
      </cc:Work>
    </rdf:RDF>
  </metadata>
  <defs
     id="defs819" />
  <sodipodi:namedview
     pagecolor="#ffffff"
     bordercolor="#666666"
     borderopacity="1"
     objecttolerance="10"
     gridtolerance="10"
     guidetolerance="10"
     inkscape:pageopacity="0"
     inkscape:pageshadow="2"
     inkscape:window-width="1280"
     inkscape:window-height="971"
     id="namedview817"
     showgrid="false"
     inkscape:zoom="2.3773414"
     inkscape:cx="84.134548"
     inkscape:cy="-7.1730521"
     inkscape:window-x="-8"
     inkscape:window-y="-8"
     inkscape:window-maximized="1"
     inkscape:current-layer="svg815"
     showguides="true"
     inkscape:guide-bbox="true" />
  <path
     style="fill:#00ffff;fill-opacity:1;stroke-width:0.1035705"
     d="m 18.053114,5.6279946 c -0.06792,0.059279 0.221229,1.3296951 0.444427,1.9532831 0.321606,0.898481 1.757236,1.610134 2.575115,2.3958816 5.749784,0.8926847 7.510489,1.9364697 11.509373,3.2609587 0.353093,0.121855 0.702373,0.36641 1.038824,0.663897 -0.368055,0.138602 -0.699087,0.272489 -1.057113,0.409677 -0.66108,-0.04858 -1.32381,-0.08164 -1.988033,-0.08413 -15.791594,10e-5 -28.5931853,12.801692 -28.5932851,28.593286 0.00874,15.194718 11.9002191,27.728849 27.0734551,28.536589 0.151104,0.04311 0.307413,0.06527 0.464545,0.06584 0.948053,7.22e-4 1.717065,-0.767472 1.717353,-1.715525 -2.88e-4,-0.948053 -0.7693,-1.716247 -1.717353,-1.715524 -0.01891,2.97e-4 -0.03781,8.63e-4 -0.0567,0.0019 C 15.986326,67.399819 5.3594081,56.311327 5.3384842,42.820848 c 0.4355456,-3.094857 1.6984042,-5.98522 3.4475082,-8.632488 -0.7199884,2.214737 -1.11382,4.577346 -1.1138103,7.032185 0.00715,12.07832 9.4596349,22.041701 21.5208639,22.684055 0.120136,0.03453 0.244446,0.05237 0.369441,0.05304 0.753577,1.34e-4 1.364506,-0.610794 1.364372,-1.364371 -8.75e-4,-0.752864 -0.611508,-1.362678 -1.364372,-1.362543 -0.01525,3.54e-4 -0.03049,8.92e-4 -0.04572,0.0019 -10.714082,-0.472283 -19.162007,-9.287578 -19.17802,-20.012052 0.0044,-4.81952 1.743646,-9.476388 4.899668,-13.11882 -1.871434,3.010994 -2.865249,6.484594 -2.86957,10.029779 0.0059,10.119937 7.925673,18.467918 18.03129,19.006104 0.100536,0.0287 0.204535,0.04346 0.309087,0.0439 0.632047,0.0011 1.144978,-0.511025 1.144902,-1.143073 -9.33e-4,-0.631334 -0.513568,-1.142332 -1.144902,-1.141244 -0.01219,-1.95e-4 -0.02438,-1.95e-4 -0.03658,0 -8.976482,-0.395354 -16.054694,-7.780509 -16.068863,-16.765681 2.96e-4,-6.921984 4.187954,-12.861934 10.165119,-15.437887 2.544964,0.378568 4.788849,0.777908 5.951296,0.795579 2.427367,2.808401 -8.257588,5.378215 -3.873646,15.607976 -2.394265,-11.716173 3.830503,-9.038113 8.550186,-14.48685 l 8.199034,-2.020953 c 1.392084,0.419454 5.291206,1.381932 8.261217,1.752103 0.04486,0.356386 0.05554,1.034752 0.03292,2.432459 l 1.625907,-2.284317 c 0.212251,0.0075 0.414404,0.0094 0.599885,0.0055 0.168087,0.232622 0.396595,0.437458 0.50661,0.4554 0.386182,0.06283 0.321673,2.151551 -0.102419,3.312169 l -0.201181,0.552332 0.550504,-0.321889 c 0.998101,-0.585544 1.878774,-1.892373 2.048387,-3.037831 l 0.07315,-0.501123 c 0.200254,-1.726545 0.149573,1.778696 0.669384,-2.602548 -0.11212,-0.155415 -0.08931,-0.454354 0.06584,-0.907143 -2.68747,-1.07475 -5.062731,-1.261448 -7.247998,-2.520248 -0.359051,-0.401681 -0.445563,-0.589081 -0.455401,-0.976641 -0.01136,-0.442714 -0.05665,-0.518689 -0.587082,-1.009562 -0.315778,-0.292243 -0.94571,-0.733669 -1.399121,-0.980299 -0.219185,-0.119355 -0.507973,-0.253874 -0.824842,-0.395046 L 47.10911,15.45477 C 45.362497,13.629524 40.941504,10.593562 37.960873,9.1724354 34.867918,7.6977655 30.843498,6.5212358 27.400708,6.0870527 24.216293,5.6854285 22.998037,5.7629189 25.529726,6.2059323 c 3.940608,0.6894472 7.908583,2.2030888 11.695923,4.4643857 1.204646,0.719263 2.913375,1.978136 3.533467,2.53305 L 36.627593,11.643303 C 31.429657,10.199337 30.009457,10.096268 23.719098,9.0572136 21.631308,8.2434492 19.874248,8.3221734 18.7353,6.5936627 18.376792,6.0494894 18.069125,5.6152408 18.053114,5.6279946 Z M 41.51263,17.43914 c 0.194315,-0.0014 0.435915,0.0041 0.718764,0.02011 0.366394,0.02154 0.698455,0.05947 1.002246,0.111564 0.911391,0.157213 1.568114,0.460655 2.12886,0.965668 0.334757,0.301476 0.7857,0.617653 1.000417,0.702304 0.547688,0.215692 0.548124,0.268645 0.0055,0.356639 -0.261197,0.04289 -0.538194,0.125474 -0.614516,0.184721 -0.501811,0.391267 -2.222078,-0.298712 -2.825677,-1.133929 -0.298262,-0.412721 -1.049248,-0.871504 -1.656998,-1.01322 -0.32813,-0.0765 -0.37097,-0.137717 -0.190207,-0.170089 v 0.0019 c 0.09038,-0.01611 0.237309,-0.02423 0.431624,-0.0256 z m 1.047969,6.393893 -5.969585,1.33328 c 0.849448,0.457459 4.007436,2.273618 4.802736,2.66839 0.649717,0.335345 1.762888,1.048612 2.472696,1.583842 l 1.289386,0.971155 0.552333,1.335109 c 0.303502,0.7346 0.631793,1.446571 0.729737,1.582013 0.09791,0.135563 0.522767,0.37718 0.943722,0.535873 0.420927,0.158702 0.811019,0.353625 0.868735,0.433453 0.119985,0.166034 -0.02487,0.895403 -0.243246,1.225374 -0.243822,0.368438 0.08781,0.356997 0.563307,-0.02011 0.354926,-0.281324 0.458573,-0.309992 0.50661,-0.142656 0.0712,0.248241 0.279002,0.109095 0.444426,-0.296284 0.06311,-0.154769 0.14164,-0.448731 0.175576,-0.652924 0.05157,-0.310175 0.127582,-0.391748 0.457229,-0.499294 0.303503,-0.09914 0.449464,-0.229936 0.632805,-0.568793 0.33849,-0.625669 0.535421,-1.920257 0.298114,-1.958769 -0.129059,-0.02088 -0.175325,-0.148084 -0.153629,-0.409678 0.01722,-0.208416 -0.04179,-0.551968 -0.129852,-0.762659 l -0.160946,-0.382243 -0.1518,0.662067 c -0.227394,0.984855 -0.456736,1.225812 -1.002246,1.04797 l -0.448085,-0.148142 c 0,0 -0.05557,1.132083 -2.377592,-1.406437 -1.340379,-1.442945 -1.624349,-1.849308 -2.165437,-3.090869 -0.140706,-0.322863 -1.735658,-2.500133 -1.934994,-3.03966 z"
     id="path10251-4-7"
     inkscape:connector-curvature="0" />
  <text
     xml:space="preserve"
     style="font-style:normal;font-weight:normal;font-size:42.39542389px;line-height:1.25;font-family:sans-serif;letter-spacing:0px;word-spacing:0px;fill:#000000;fill-opacity:1;stroke:none;stroke-width:1.0598855"
     x="55.92981"
     y="68.795166"
     id="text10565-2"
     transform="skewX(-18.367078)"><tspan
       sodipodi:role="line"
       id="tspan10563-7"
       x="55.92981"
       y="68.795166"
       style="font-style:normal;font-variant:normal;font-weight:normal;font-stretch:normal;font-family:Khand;-inkscape-font-specification:Khand;stroke-width:1.0598855">Canvate  JS</tspan></text>
  <text
     xml:space="preserve"
     style="font-style:normal;font-weight:normal;font-size:18.74575615px;line-height:1.25;font-family:sans-serif;letter-spacing:0px;word-spacing:0px;fill:#000000;fill-opacity:1;stroke:none;stroke-width:0.46864393"
     x="59.595978"
     y="88.464417"
     id="text10569-4"><tspan
       sodipodi:role="line"
       id="tspan10567-9"
       x="59.595978"
       y="88.464417"
       style="font-style:normal;font-variant:normal;font-weight:normal;font-stretch:normal;font-family:khand;-inkscape-font-specification:khand;stroke-width:0.46864393">canvas library</tspan></text>
  <circle
     style="fill:#ff0000;fill-opacity:1;stroke:none;stroke-width:0.18722966;stroke-linecap:round;stroke-linejoin:round;stroke-miterlimit:4;stroke-dasharray:none;stroke-opacity:1;paint-order:normal"
     id="path10642"
     cx="160.27737"
     cy="65.467773"
     r="3.5732858" />
  <path
     sodipodi:type="star"
     style="fill:#000000;fill-opacity:0;stroke:none;stroke-width:1;stroke-linecap:round;stroke-linejoin:round;stroke-miterlimit:4;stroke-dasharray:none;stroke-opacity:1;paint-order:normal"
     id="path2679"
     sodipodi:sides="5"
     sodipodi:cx="-377.49832"
     sodipodi:cy="-515.73346"
     sodipodi:r1="323.93066"
     sodipodi:r2="161.96533"
     sodipodi:arg1="0.67877047"
     sodipodi:arg2="1.307089"
     inkscape:flatsided="false"
     inkscape:rounded="0"
     inkscape:randomized="0"
     d="m -125.36843,-312.35797 -209.91177,-47.00926 -157.72729,146.27003 -20.15784,-214.16461 -187.85148,-104.80765 197.45354,-85.35175 41.6287,-211.04471 142.19083,161.41433 213.57943,-25.62516 -109.57477,185.11129 z"
     inkscape:transform-center-x="26.092236"
     inkscape:transform-center-y="-5.0481008" />
</svg>
